<svg id="discount" xmlns="http://www.w3.org/2000/svg" width="58.238" height="54.782" viewBox="0 0 58.238 54.782">
  <path id="Контур_80" data-name="Контур 80" d="M226.856,153.961,223.8,150.2l-1.7,10.985a4.635,4.635,0,0,1-1.448,2.675l-20.912,19.323a10.018,10.018,0,0,1-6.837,2.614,10.524,10.524,0,0,1-2.263-.246,6.391,6.391,0,0,0,5.273,2.676h25.024a6.039,6.039,0,0,0,6.256-5.781V154.907A1.5,1.5,0,0,0,226.856,153.961Z" transform="translate(-168.959 -133.443)" fill="#ffe900"/>
  <ellipse id="Эллипс_10" data-name="Эллипс 10" cx="1.706" cy="1.577" rx="1.706" ry="1.577" transform="translate(33.502 23.48)" fill="#ffe900"/>
  <ellipse id="Эллипс_11" data-name="Эллипс 11" cx="1.706" cy="1.577" rx="1.706" ry="1.577" transform="translate(14.199 23.48)" fill="#ffe900"/>
  <path id="Контур_81" data-name="Контур 81" d="M28.372,47.474,49.284,27.763a1.576,1.576,0,0,0,.483-.91L52.18,10.933A1.552,1.552,0,0,0,51.7,9.568L48.078,6.157l-4.826,4.549,1.207,1.137a1.544,1.544,0,0,1,0,2.274,1.78,1.78,0,0,1-2.413,0L37.22,9.568a1.544,1.544,0,0,1,0-2.274,1.781,1.781,0,0,1,2.413,0l1.207,1.137,4.826-4.549L42.046.471A1.773,1.773,0,0,0,40.6.016L23.707,2.29a1.747,1.747,0,0,0-.965.455L1.83,22.456a5.666,5.666,0,0,0,0,8.339L19.525,47.474a6.537,6.537,0,0,0,8.847,0Zm6.837-27.189a4.984,4.984,0,0,1,5.119,4.825,5.128,5.128,0,0,1-10.237,0A4.984,4.984,0,0,1,35.209,20.285Zm-19.3,9.649a4.984,4.984,0,0,1-5.119-4.825,4.984,4.984,0,0,1,5.119-4.825,4.984,4.984,0,0,1,5.119,4.825A4.984,4.984,0,0,1,15.905,29.935Zm5.63,8.156a1.8,1.8,0,0,1-.54-.083,1.589,1.589,0,0,1-1.079-2.034L27.96,13.229a1.732,1.732,0,0,1,2.158-1.017A1.589,1.589,0,0,1,31.2,14.247L23.154,36.99A1.7,1.7,0,0,1,21.536,38.09Z" transform="translate(0 0)" fill="#ffe900"/>
  <path id="Контур_82" data-name="Контур 82" d="M407.489,2.692a1.493,1.493,0,0,0,0-2.23,1.807,1.807,0,0,0-2.413,0l-3.619,3.344,2.413,2.23Z" transform="translate(-355.793 0)" fill="#ffe900"/>
</svg>
