<svg id="hand-sanitizer" xmlns="http://www.w3.org/2000/svg" width="40.703" height="61.141" viewBox="0 0 40.703 61.141">
  <path id="Контур_83" data-name="Контур 83" d="M160.738,6.677l-.294-.556C158.475,2.4,153.931,0,148.868,0H132.61a1.029,1.029,0,0,0-1.123.9,1.029,1.029,0,0,0,1.123.9h16.258c4.158,0,7.89,1.973,9.507,5.027l0,0h-2.849a8.337,8.337,0,0,0-6.659-3H125.462V1.791h2.361a1.029,1.029,0,0,0,1.123-.9,1.029,1.029,0,0,0-1.123-.9H124.97a1.608,1.608,0,0,0-1.754,1.4V4.213a1.608,1.608,0,0,0,1.754,1.4H133.8v4.5h-1.632a2.365,2.365,0,0,0-2.579,2.056v1.894h-1.011a1.6,1.6,0,0,0-1.743,1.39v2.74l-3.72,2.33a5.764,5.764,0,0,0-2.947,4.833V56.789c0,2.4,2.449,4.352,5.459,4.352h23.395c3.01,0,5.459-1.952,5.459-4.352V31.214a1.152,1.152,0,0,0-2.246,0V56.789c0,1.412-1.441,2.561-3.212,2.561H125.632c-1.771,0-3.212-1.149-3.212-2.561V25.355a4.084,4.084,0,0,1,2.088-3.425l4.149-2.6a.844.844,0,0,0,.429-.7V15.853h16.485v2.774a.845.845,0,0,0,.429.7l4.15,2.6a4.084,4.084,0,0,1,2.088,3.425V27.4a1.152,1.152,0,0,0,2.246,0V25.355a5.764,5.764,0,0,0-2.947-4.833l-3.72-2.33v-2.74a1.6,1.6,0,0,0-1.743-1.39h-1.011V12.168a2.365,2.365,0,0,0-2.579-2.056h-1.632v-4.5h8.014a5.861,5.861,0,0,1,4.84,2.28,1.851,1.851,0,0,0,1.529.72h3.891a1.894,1.894,0,0,0,1.456-.623,1.152,1.152,0,0,0,.154-1.312Zm-17.92,5.491v1.894H131.84V12.168a.3.3,0,0,1,.332-.265h10.313A.3.3,0,0,1,142.818,12.168Zm-4.211-2.056h-2.556v-4.5h2.556Z" transform="translate(-120.173 0)" fill="#ffe900"/>
  <path id="Контур_84" data-name="Контур 84" d="M154.221,253.32a1.329,1.329,0,0,0-1.582.113,9.022,9.022,0,0,0-2.961,6.508c0,5.6,5.714,10.154,12.738,10.154s12.738-4.555,12.738-10.154-5.714-10.154-12.738-10.154a15.3,15.3,0,0,0-5.652,1.054.821.821,0,0,0-.507,1.2,1.268,1.268,0,0,0,1.505.4,12.6,12.6,0,0,1,4.654-.868c5.785,0,10.491,3.752,10.491,8.363S168.2,268.3,162.415,268.3s-10.492-3.752-10.492-8.363a7.43,7.43,0,0,1,2.439-5.359.777.777,0,0,0-.142-1.261Z" transform="translate(-145.258 -219.965)" fill="#ffe900"/>
  <path id="Контур_85" data-name="Контур 85" d="M196.158,287.506h-3.347a1.66,1.66,0,0,0-1.81,1.443v1.431h-1.795a1.66,1.66,0,0,0-1.81,1.443v2.668a1.66,1.66,0,0,0,1.81,1.443H191v1.431a1.66,1.66,0,0,0,1.81,1.443h3.347a1.66,1.66,0,0,0,1.81-1.443v-1.431h1.795a1.66,1.66,0,0,0,1.81-1.443v-2.668a1.66,1.66,0,0,0-1.81-1.443h-1.795v-1.431A1.66,1.66,0,0,0,196.158,287.506Zm3.169,4.665v1.973h-2.482a1.029,1.029,0,0,0-1.123.9v1.978h-2.475v-1.978a1.029,1.029,0,0,0-1.123-.9h-2.482v-1.973h2.482a1.029,1.029,0,0,0,1.123-.9V289.3h2.475v1.978a1.029,1.029,0,0,0,1.123.9Z" transform="translate(-177.328 -253.182)" fill="#ffe900"/>
</svg>
