<svg id="refund" xmlns="http://www.w3.org/2000/svg" width="48.903" height="53.048" viewBox="0 0 48.903 53.048">
  <circle id="Эллипс_12" data-name="Эллипс 12" cx="10" cy="10" r="10" transform="translate(14.17 16.296)" fill="#f8ed76"/>
  <path id="Контур_88" data-name="Контур 88" d="M52.742,12.082l-.039.063L49.271,10v2.449h0C38.674,14.4,30,24.334,30,35.488,30,48.057,40.847,58.9,53.416,58.9c.269,0,.539-.005.806-.014l3.338,2.087V58.526c10.6-1.955,19.271-11.885,19.271-23.039C76.831,22.7,65.617,11.709,52.742,12.082ZM57.56,52.163V50.615l-3.28,2.05q-.429.022-.864.022a17.68,17.68,0,0,1-17.2-17.2c0-7.711,5.913-14.83,13.055-16.675v1.548l3.28-2.05c9.531-.486,18.063,7.75,18.063,17.177C70.615,43.2,64.7,50.317,57.56,52.163Z" transform="translate(-28.964 -8.964)" fill="#f8ed76"/>
  <path id="Контур_89" data-name="Контур 89" d="M43.931,2.079,40.857.157a1.036,1.036,0,0,0-1.585.879V2.642a24.777,24.777,0,0,0-13.364,8.243A24.313,24.313,0,0,0,20,26.524c0,13.342,11.619,24.742,24.973,24.445l3.074,1.921a1.036,1.036,0,0,0,1.585-.879v-1.6C60.394,47.991,68.9,37.816,68.9,26.524,68.9,13.328,57.424,1.792,43.931,2.079ZM22.072,26.524A23.014,23.014,0,0,1,40.494,4.505l.018,0,.021,0a1.037,1.037,0,0,0,.811-1.011v-.58l5.3,3.311L43.052,8.459l-.009.006L41.3,9.554a1.039,1.039,0,0,0-1.253-.708C32.391,10.824,26.217,18.4,26.217,26.524c0,8.875,7.114,16.754,15.751,18.048l-2.209,1.381a1.036,1.036,0,0,0,0,1.757l1.51.944C30.729,47,22.072,37.37,22.072,26.524Zm38.543,0c0,6.563-4.729,13.016-10.983,15.271v-.144a1.036,1.036,0,0,0-1.585-.879L45,42.676c-.182.006-.365.01-.549.01A16.586,16.586,0,0,1,28.289,26.524c0-6.563,4.729-13.016,10.983-15.271V11.4a1.036,1.036,0,0,0,1.585.879l3.046-1.9A16.617,16.617,0,0,1,60.615,26.524ZM48.408,48.543a1.036,1.036,0,0,0-.848,1.019v.58l-5.3-3.311,5.34-3.338a1.036,1.036,0,0,0,1.253.708c7.657-1.978,13.832-9.551,13.832-17.678,0-8.782-6.973-16.7-15.767-18.038l2.225-1.391a1.036,1.036,0,0,0,0-1.757l-1.5-.937C58.5,6.111,66.831,15.834,66.831,26.524A23.016,23.016,0,0,1,48.408,48.543Z" transform="translate(-20 0)" fill="#ffe900"/>
  <path id="Контур_90" data-name="Контур 90" d="M229.534,195.651a1.876,1.876,0,0,1-1.345-.784A1.036,1.036,0,0,0,226.6,196.2a4.3,4.3,0,0,0,1.9,1.349v1.209a1.036,1.036,0,1,0,2.072,0v-1.214a3.108,3.108,0,0,0-1.036-6.038,1.036,1.036,0,1,1,0-2.072,1.664,1.664,0,0,1,1.121.542,1.036,1.036,0,0,0,1.441-1.489,4,4,0,0,0-1.526-.954v-1.207a1.036,1.036,0,1,0-2.072,0v1.214a3.108,3.108,0,0,0,1.036,6.038,1.036,1.036,0,0,1,0,2.072Z" transform="translate(-204.979 -166.092)" fill="#fff"/>
  <path id="Контур_91" data-name="Контур 91" d="M146,157.4A11.4,11.4,0,1,0,157.4,146,11.41,11.41,0,0,0,146,157.4Zm11.4-9.325a9.325,9.325,0,1,1-9.325,9.325A9.335,9.335,0,0,1,157.4,148.072Z" transform="translate(-132.945 -130.873)" fill="#ffe900"/>
</svg>
