<svg id="surface1" xmlns="http://www.w3.org/2000/svg" width="98.547" height="41.693" viewBox="0 0 98.547 41.693">
  <path id="Контур_86" data-name="Контур 86" d="M240,86.891h6.569v3.475H240Zm0,0" transform="translate(-198.939 -71.258)" fill="#ffe900"/>
  <path id="Контур_87" data-name="Контур 87" d="M97.137,10.931,85.981,9.246A55.334,55.334,0,0,0,79.658,5.7,52.775,52.775,0,0,0,56.776.492H54.838a53.447,53.447,0,0,0-26.658,7.19L22.549,10.93A37.2,37.2,0,0,0,3.768,16.314,8.022,8.022,0,0,0,0,23.181V33.5a1.692,1.692,0,0,0,1.643,1.737H7.158A9.693,9.693,0,0,0,19.671,41.6a10.117,10.117,0,0,0,6.018-6.365H69.571A9.692,9.692,0,0,0,82.084,41.6,10.119,10.119,0,0,0,88.1,35.232h.589a1.571,1.571,0,0,0,.611-.124l5.32-2.258a6.577,6.577,0,0,0,3.924-6.13V12.651A1.71,1.71,0,0,0,97.137,10.931ZM22.861,33.148a6.589,6.589,0,0,1-7.752,5.416,6.948,6.948,0,0,1-5.122-8.2,6.59,6.59,0,0,1,7.753-5.416,6.865,6.865,0,0,1,5.254,6.809A7.337,7.337,0,0,1,22.861,33.148Zm29.7-1.39H26.279c0-5.756-4.412-10.422-9.854-10.422S6.57,26,6.57,31.759H3.285V23.181A4.5,4.5,0,0,1,5.4,19.33a34.028,34.028,0,0,1,17.6-4.942H52.558Zm0-20.844H29.436l.317-.183A50.353,50.353,0,0,1,52.558,4.042Zm3.285-6.949h.93A49.511,49.511,0,0,1,76.1,7.882L73.23,10.914H55.843ZM85.274,33.148a6.589,6.589,0,0,1-7.753,5.416,6.948,6.948,0,0,1-5.121-8.2,6.589,6.589,0,0,1,7.752-5.416,6.865,6.865,0,0,1,5.254,6.809A7.337,7.337,0,0,1,85.274,33.148Zm9.988-17.023H90.335V19.6h4.928v7.122a3.113,3.113,0,0,1-1.859,2.9l-4.711,2c0-.16-.019-.318-.029-.478s-.014-.347-.029-.521-.049-.348-.076-.521-.046-.348-.079-.505-.081-.333-.124-.5-.076-.331-.125-.493-.108-.316-.164-.474-.107-.321-.164-.478-.135-.3-.2-.446-.136-.309-.213-.459-.164-.276-.239-.415-.164-.3-.257-.44-.181-.255-.271-.384-.192-.28-.3-.414-.2-.238-.305-.348-.215-.257-.328-.378-.225-.218-.338-.325-.235-.235-.36-.348-.251-.2-.376-.3-.25-.2-.381-.3-.279-.173-.42-.271-.257-.174-.39-.248-.3-.153-.45-.23-.269-.144-.409-.206-.329-.129-.493-.191-.271-.112-.411-.158c-.187-.061-.379-.1-.57-.155-.125-.031-.245-.073-.371-.1-.2-.044-.409-.068-.614-.1-.122-.017-.238-.045-.359-.057a9.445,9.445,0,0,0-1-.054C73.4,21.34,68.993,26,68.988,31.756H55.844V14.388H73.91a1.6,1.6,0,0,0,1.161-.509l4.259-4.5a51.855,51.855,0,0,1,5.207,3.012,1.593,1.593,0,0,0,.637.247l10.088,1.523Zm0,0" transform="translate(0 -0.492)" fill="#ffe900"/>
</svg>
